<svg width="1358" height="453" viewBox="0 0 1358 453" fill="none" xmlns="http://www.w3.org/2000/svg">
<path d="M0 101L6.6 32H291.6L285 101L180.6 92L178.2 290L185.4 446H101.4L108.6 300.2L106.2 92.6L0 101ZM434.597 384.8C446.197 384.8 458.397 381.8 471.197 375.8C483.997 369.8 493.997 363.8 501.197 357.8L511.997 348.8L539.597 382.4C535.597 389.2 529.397 397 520.997 405.8C512.597 414.6 503.997 422.2 495.197 428.6C486.797 434.6 475.397 440.2 460.997 445.4C446.997 450.2 432.397 452.6 417.197 452.6C384.797 452.6 358.397 440.4 337.997 416C317.597 391.2 307.397 359.4 307.397 320.6C307.397 271.8 321.597 229 349.997 192.2C378.397 155.4 411.597 137 449.597 137C478.797 137 501.397 145.2 517.397 161.6C533.797 178 541.997 201 541.997 230.6C541.997 248.2 538.997 268.2 532.997 290.6L520.997 303.2L370.997 317C377.797 362.2 398.997 384.8 434.597 384.8ZM434.597 198.8C416.997 198.8 402.197 206 390.197 220.4C378.197 234.4 371.197 252.4 369.197 274.4L471.197 261.8C472.397 252.6 472.997 245 472.997 239C472.997 212.2 460.197 198.8 434.597 198.8ZM617.77 155.6V90.2L698.77 74.6L690.97 155.6H763.57L756.97 204.8H688.57L685.57 330.2C685.57 349 687.37 361.6 690.97 368C694.57 374 701.17 377 710.77 377C720.37 377 733.17 374.8 749.17 370.4L752.77 413C726.37 435 703.17 446 683.17 446C663.17 446 646.77 438.8 633.97 424.4C621.17 409.6 614.77 390.4 614.77 366.8L618.37 299.6L617.77 204.8H576.37L582.97 155.6H617.77ZM801.052 156.2L873.652 140.6C877.252 171.4 879.652 200.6 880.852 228.2C917.252 171.8 951.452 143.6 983.452 143.6L976.852 237.2C953.652 237.2 935.252 239.4 921.652 243.8C908.452 247.8 894.852 256 880.852 268.4V290L887.452 431L807.052 446L814.252 300.2C812.652 246.6 808.252 198.6 801.052 156.2ZM1101.92 140.6L1094.72 290L1101.32 431L1020.92 446L1028.12 300.2L1021.52 155.6L1101.92 140.6ZM1017.32 53C1017.32 39.4 1022.52 27.4 1032.92 17C1043.32 6.19998 1055.32 0.799974 1068.92 0.799974C1082.52 0.799974 1092.92 4.59997 1100.12 12.2C1107.32 19.4 1110.92 30.4 1110.92 45.2C1110.92 60 1105.72 72.8 1095.32 83.6C1085.32 94 1073.52 99.2 1059.92 99.2C1046.72 99.2 1036.32 94.8 1028.72 86C1021.12 77.2 1017.32 66.2 1017.32 53ZM1258.6 390.2C1279.4 390.2 1289.8 381 1289.8 362.6C1289.8 356.2 1285.2 350.2 1276 344.6C1267.2 339 1256.2 333.4 1243 327.8C1230.2 322.2 1217.2 316 1204 309.2C1191.2 302 1180.2 292.2 1171 279.8C1162.2 267.4 1157.8 253.2 1157.8 237.2C1157.8 210.4 1169.6 187 1193.2 167C1216.8 147 1244 137 1274.8 137C1289.2 137 1303.2 138.8 1316.8 142.4C1330.8 145.6 1344.2 150.8 1357 158L1316.8 231.2C1314 228.8 1310.4 225.8 1306 222.2C1301.6 218.6 1293.2 214 1280.8 208.4C1268.8 202.4 1258 199.4 1248.4 199.4C1239.2 199.4 1232 201.6 1226.8 206C1222 210 1219.6 215.8 1219.6 223.4C1219.6 230.6 1226.4 238 1240 245.6C1254 252.8 1269.2 259.6 1285.6 266C1302 272 1317 282.2 1330.6 296.6C1344.6 310.6 1351.6 327.4 1351.6 347C1351.6 375 1340 399.6 1316.8 420.8C1294 442 1267.6 452.6 1237.6 452.6C1218.4 452.6 1200.4 448.4 1183.6 440C1167.2 431.6 1155.4 423.2 1148.2 414.8L1137.4 402.2L1184.8 347C1187.2 350.2 1190.6 354.2 1195 359C1199.4 363.8 1208 370.2 1220.8 378.2C1234 386.2 1246.6 390.2 1258.6 390.2Z" fill="#84FABA"/>
</svg>
